<?xml version="1.0" encoding="UTF-8"?>
<svg width="14px" height="14px" viewBox="0 0 14 14" version="1.1" xmlns="http://www.w3.org/2000/svg" xmlns:xlink="http://www.w3.org/1999/xlink">
    <!-- Generator: Sketch 49.2 (51160) - http://www.bohemiancoding.com/sketch -->
    <title>icon-Cleaning</title>
    <desc>Created with Sketch.</desc>
    <defs></defs>
    <g id="Page-1" stroke="none" stroke-width="1" fill="none" fill-rule="evenodd">
        <g id="选项" transform="translate(-682.000000, -631.000000)" fill="#FFFFFF">
            <g id="icon-Cleaning" transform="translate(682.000000, 631.000000)">
                <path d="M7,14 C3.13400675,14 0,10.8659932 0,7 C0,3.13400675 3.13400675,0 7,0 C10.8659932,0 14,3.13400675 14,7 C14,10.8659932 10.8659932,14 7,14 Z M7,12.5762712 C10.0796895,12.5762712 12.5762712,10.0796895 12.5762712,7 C12.5762712,3.92031046 10.0796895,1.42372881 7,1.42372881 C3.92031046,1.42372881 1.42372881,3.92031046 1.42372881,7 C1.42372881,10.0796895 3.92031046,12.5762712 7,12.5762712 Z" id="Combined-Shape" opacity="0.200000003"></path>
                <path d="M7,0 C10.8659932,0 14,3.13400675 14,7 C13.5340048,7 13.0594285,7 12.5762712,7 C12.5762712,3.92031046 10.0796895,1.42372881 7,1.42372881 C7,0.953921925 7,0.479345654 7,0 Z" id="Combined-Shape"></path>
            </g>
        </g>
    </g>
</svg>