<?xml version="1.0" encoding="UTF-8"?>
<svg width="14px" height="14px" viewBox="0 0 14 14" version="1.1" xmlns="http://www.w3.org/2000/svg" xmlns:xlink="http://www.w3.org/1999/xlink">
    <!-- Generator: Sketch 49.2 (51160) - http://www.bohemiancoding.com/sketch -->
    <title>icon-Clean up completed</title>
    <desc>Created with Sketch.</desc>
    <defs></defs>
    <g id="Page-1" stroke="none" stroke-width="1" fill="none" fill-rule="evenodd">
        <g id="选项" transform="translate(-682.000000, -835.000000)" fill="#FFFFFF">
            <g id="icon-Clean-up-completed" transform="translate(682.000000, 835.000000)">
                <path d="M7,14 C3.13400675,14 0,10.8659932 0,7 C0,3.13400675 3.13400675,0 7,0 C10.8659932,0 14,3.13400675 14,7 C14,10.8659932 10.8659932,14 7,14 Z M7,12.5762712 C10.0796895,12.5762712 12.5762712,10.0796895 12.5762712,7 C12.5762712,3.92031046 10.0796895,1.42372881 7,1.42372881 C3.92031046,1.42372881 1.42372881,3.92031046 1.42372881,7 C1.42372881,10.0796895 3.92031046,12.5762712 7,12.5762712 Z" id="Combined-Shape"></path>
                <path d="M8.03553391,8.53553391 L8.03553391,3.53553391 L9.03553391,3.53553391 L9.03553391,8.53553391 L9.03553391,9.53553391 L5.03553391,9.53553391 L5.03553391,8.53553391 L8.03553391,8.53553391 Z" id="Combined-Shape" transform="translate(7.035534, 6.535534) rotate(-315.000000) translate(-7.035534, -6.535534) "></path>
            </g>
        </g>
    </g>
</svg>